<svg width="55" height="38" viewBox="0 0 55 38" fill="none" xmlns="http://www.w3.org/2000/svg">
<path d="M10.3056 15.9528C9.89815 18.0303 9.89815 20.1079 10.3056 22.1855L14.4815 19.0197L10.3056 15.9528Z" fill="#63D1BB"/>
<path d="M34.852 3.586C29.9631 1.40951 24.2594 1.40951 19.2686 3.98172L26.9075 9.52187L34.852 3.586Z" fill="#63D1BB"/>
<path d="M44.528 15.062L39.6391 18.7225L44.6299 22.3829C45.1392 20.0086 45.1392 17.4364 44.528 15.062Z" fill="#63D1BB"/>
<path d="M19.3705 34.057C24.2594 36.5303 30.2687 36.7282 35.3613 34.156L27.1113 28.1212L19.3705 34.057Z" fill="#63D1BB"/>
<path d="M18.0464 16.2488L11.7315 11.698C11.426 12.3905 11.1204 13.083 10.9167 13.7755L16.3149 17.7328L18.0464 16.2488Z" fill="#63D1BB"/>
<path d="M28.9446 26.8348L37.3983 32.9686C37.7039 32.7707 38.0095 32.5729 38.2132 32.375C38.5187 32.1771 38.8243 31.8803 39.1298 31.5835L30.6761 25.4498L28.9446 26.8348Z" fill="#63D1BB"/>
<path d="M21.6112 13.5781L14.0741 8.13684C13.5649 8.6315 13.1574 9.22509 12.75 9.81867L19.7779 14.9631L21.6112 13.5781Z" fill="#63D1BB"/>
<path d="M32.5094 24.1635L40.7595 30.1983C41.2688 29.7037 41.6762 29.1101 42.0836 28.5165L34.2409 22.7785L32.5094 24.1635Z" fill="#63D1BB"/>
<path d="M25.176 10.9069L17.3334 5.16888C17.1297 5.26782 16.926 5.46568 16.7223 5.56461C16.3149 5.8614 15.9075 6.1582 15.6019 6.55392L23.4446 12.193L25.176 10.9069Z" fill="#63D1BB"/>
<path d="M36.0743 21.3936L43.204 26.538C43.5095 25.8455 43.8151 25.2519 44.1206 24.5594L37.9076 20.0086L36.0743 21.3936Z" fill="#63D1BB"/>
<path d="M36.8891 4.67422L10.9167 24.3616C11.1204 25.0541 11.426 25.7466 11.7315 26.4391L38.7225 5.96033C38.2132 5.46568 37.6021 5.06995 36.8891 4.67422Z" fill="#63D1BB"/>
<path d="M41.2688 8.53237C40.9632 8.13664 40.6576 7.74092 40.3521 7.44412L12.8519 28.2197C13.0556 28.7144 13.3611 29.1101 13.6667 29.4069C13.7685 29.6047 13.9722 29.8026 14.0741 29.9015L41.778 9.12595C41.5743 8.92809 41.4725 8.73023 41.2688 8.53237Z" fill="#63D1BB"/>
<path d="M42.8984 10.9067L15.7037 31.4844C16.213 31.9791 16.8241 32.4737 17.4352 32.8695L43.9169 12.8853C43.6114 12.1928 43.3058 11.5003 42.8984 10.9067Z" fill="#63D1BB"/>
</svg>
