<svg width="55" height="38" viewBox="0 0 55 38" fill="none" xmlns="http://www.w3.org/2000/svg">
<path d="M47.0665 5H7.93347C5.71459 5 4 6.74359 4 9V29C4 31.2564 5.71459 33 7.93347 33H47.0665C49.2854 33 51 31.2564 51 29V9C51 6.84616 49.1845 5 47.0665 5ZM7.02575 30.641V7.87179H47.5708V30.641H7.02575Z" fill="#63D1BB"/>
<path d="M10.9593 26.6412H43.6374V11.872H10.9593V26.6412ZM27.5 13.8207C30.4249 13.8207 32.8455 16.2822 32.8455 19.2566C32.8455 22.231 30.4249 24.6925 27.5 24.6925C24.5751 24.6925 22.1545 22.231 22.1545 19.2566C22.1545 16.1797 24.5751 13.8207 27.5 13.8207Z" fill="#63D1BB"/>
</svg>
