<svg width="55" height="38" viewBox="0 0 55 38" fill="none" xmlns="http://www.w3.org/2000/svg">
<path d="M27.5 38C36.575 38 44 30.6452 44 21.6559C34.925 21.6559 27.5 28.9086 27.5 38ZM15.7438 16.6505C15.7438 19.2043 17.8062 21.1452 20.2812 21.1452C21.2094 21.1452 22.1375 20.8387 22.8594 20.328V20.6344C22.8594 23.1882 24.9219 25.129 27.3969 25.129C29.975 25.129 31.9344 23.086 31.9344 20.6344V20.328C32.6562 20.8387 33.5844 21.1452 34.5125 21.1452C37.0906 21.1452 39.05 19.1021 39.05 16.6505C39.05 14.8118 38.0188 13.2796 36.4719 12.5645C38.0188 11.8495 39.05 10.3172 39.05 8.47849C39.05 5.92473 36.9875 3.98387 34.5125 3.98387C33.5844 3.98387 32.6562 4.29032 31.9344 4.80107V4.49462C31.9344 1.94086 29.8719 0 27.3969 0C24.8187 0 22.8594 2.04301 22.8594 4.49462V4.80107C22.1375 4.29032 21.2094 3.98387 20.2812 3.98387C17.7031 3.98387 15.7438 6.02688 15.7438 8.47849C15.7438 10.3172 16.775 11.8495 18.3219 12.5645C16.8781 13.2796 15.7438 14.8118 15.7438 16.6505ZM27.5 7.96774C30.0781 7.96774 32.0375 10.0108 32.0375 12.4624C32.0375 15.0161 29.975 16.957 27.5 16.957C24.9219 16.957 22.9625 14.914 22.9625 12.4624C22.9625 10.0108 24.9219 7.96774 27.5 7.96774ZM11 21.6559C11 30.6452 18.425 38 27.5 38C27.5 28.9086 20.075 21.6559 11 21.6559Z" fill="#63D1BB"/>
</svg>
