<svg width="55" height="38" viewBox="0 0 55 38" fill="none" xmlns="http://www.w3.org/2000/svg">
<path d="M40.9467 13C37.307 11.9655 33.0607 11.2414 28.41 11.2414C25.478 11.2414 22.8493 11.4483 20.625 11.8621L13.75 7H0.10114L5.9651 13.4138H14.4577C9.80697 15.069 7.58272 17.0345 7.58272 17.0345V20.9655C7.58272 20.9655 9.90811 22.931 14.5588 24.5862H5.86396L0 31H13.6489L20.5239 26.1379C22.8492 26.5517 25.3768 26.7586 28.3088 26.7586C32.8584 26.7586 37.1048 26.0345 40.8456 25C39.6324 23.1379 38.9246 21.1724 38.9246 18.8965C39.0257 16.8276 39.8345 14.8621 40.9467 13Z" fill="#63D1BB"/>
<path d="M44.4853 14.0343C43.1709 15.6894 42.4632 17.3446 42.4632 18.9998C42.4632 20.6549 43.1709 22.3101 44.4853 23.9653C50.9559 21.6894 55 18.9998 55 18.9998C55 18.9998 50.9559 16.3101 44.4853 14.0343Z" fill="#63D1BB"/>
</svg>
