<svg width="55" height="38" viewBox="0 0 55 38" fill="none" xmlns="http://www.w3.org/2000/svg">
<path d="M14.0275 35H26.6422V21.2716H14.0275V35ZM42.3853 11.6914H35.0183C35.5229 11.3951 36.0275 11.1975 36.4312 10.9012C38.0459 9.81481 38.8532 8.33333 38.8532 6.95062C38.8532 5.76543 38.2477 4.77777 37.4404 4.08641C36.633 3.39505 35.5229 3 34.4128 3C33.2018 3 31.9908 3.39505 31.0826 4.08641C29.5688 5.07406 28.4587 6.55555 27.6514 8.1358C27.6514 8.23456 27.5505 8.33333 27.5505 8.33333C27.2477 7.74073 26.945 7.14814 26.5413 6.55555C25.8349 5.56789 25.0275 4.679 24.0183 4.08641C23.0092 3.49382 21.8991 3 20.6881 3C19.4771 3 18.367 3.49383 17.4587 4.28395C16.6514 5.07408 16.0459 6.16049 16.0459 7.34567C16.0459 8.03703 16.2477 8.82715 16.6514 9.51851C17.2569 10.4074 18.0642 11.0988 19.2752 11.6914H12.6147C11.7064 11.6914 11 12.3827 11 13.2716V19.0988H26.5413V11.6914H28.4587V19.0988H44V13.2716C44 12.3827 43.2936 11.6914 42.3853 11.6914ZM19.8807 9.41975C19.2752 9.02469 18.8716 8.62962 18.6697 8.33333C18.4679 7.93826 18.367 7.64197 18.367 7.34567C18.367 6.85184 18.5688 6.35802 19.0734 5.86419C19.4771 5.46913 20.0826 5.17284 20.6881 5.17284C21.3945 5.17284 22.1009 5.37036 22.7064 5.86419C23.7156 6.55555 24.7248 7.64196 25.3303 9.02468C25.633 9.71604 25.9358 10.4074 26.1376 11.0988C23.0092 10.8025 20.9908 10.1111 19.8807 9.41975ZM30.4771 7.8395C31.0826 7.04938 31.6881 6.35802 32.3945 5.96296C33.1009 5.46914 33.8073 5.27161 34.4128 5.27161C35.0183 5.27161 35.5229 5.46914 35.9266 5.76543C36.3303 6.06173 36.5321 6.45679 36.5321 6.95062C36.5321 7.44444 36.2294 8.23456 35.0183 9.02468C33.9083 9.8148 31.8899 10.7037 28.8624 11.2963C29.1651 10.1111 29.7706 8.82715 30.4771 7.8395ZM28.4587 35H41.0734V21.2716H28.4587V35Z" fill="#63D1BB"/>
</svg>
