<svg width="33" height="22" viewBox="0 0 33 22" fill="none" xmlns="http://www.w3.org/2000/svg">
<path d="M26.7255 10L32.7255 6V22L26.7255 18V10ZM24.7255 10V18C24.7255 20.2 22.9255 22 20.7255 22H4.72546C2.52546 22 0.725464 20.2 0.725464 18V10C0.725464 7.8 2.52546 6 4.72546 6H14.7255C14.7255 4.9 15.6255 4 16.7255 4V2H5.72546C5.12546 2 4.72546 1.6 4.72546 1C4.72546 0.4 5.12546 0 5.72546 0H17.7255C18.3255 0 18.7255 0.4 18.7255 1V4C19.8255 4 20.7255 4.9 20.7255 6C22.9255 6 24.7255 7.8 24.7255 10ZM12.7255 10H4.72546V18H12.7255V10ZM20.7255 11C20.7255 10.4 20.3255 10 19.7255 10H15.7255C15.1255 10 14.7255 10.4 14.7255 11C14.7255 11.6 15.1255 12 15.7255 12H19.7255C20.3255 12 20.7255 11.6 20.7255 11Z" fill="#63D1BB"/>
</svg>
