<svg width="21" height="20" viewBox="0 0 21 20" fill="none" xmlns="http://www.w3.org/2000/svg">
<path opacity="0.2" d="M20.1884 7.85716H16.6377L13.1884 1.38094C12.9855 0.999991 12.5797 0.904765 12.1739 1.09524C11.7681 1.28572 11.6667 1.66667 11.8696 2.04762L15.0145 7.85716H5.7826L8.92753 2.04762C9.13043 1.66667 8.92754 1.28572 8.6232 1.09524C8.2174 0.904765 7.8116 1.09523 7.6087 1.38094L4.1594 7.85716H0.811583C0.405785 7.85716 0 8.14286 0 8.61905C0 9 0.304336 9.38094 0.811583 9.38094H1.01449L1.92753 12.2381C1.72463 12.3333 1.62317 12.5238 1.62317 12.8095C1.62317 13.1905 1.92753 13.4762 2.33332 13.4762L4.05797 19H16.942L18.6667 13.4762C19.0725 13.4762 19.3768 13.1905 19.3768 12.8095C19.3768 12.619 19.2754 12.3333 19.0725 12.2381L19.9855 9.38094H20.1884C20.5942 9.38094 21 9.09524 21 8.61905C21 8.14286 20.5942 7.85716 20.1884 7.85716ZM15.6232 17.4762H5.07247L3.85506 13.381H16.942L15.6232 17.4762ZM17.2464 11.9524H3.34782L2.53623 9.28573H18.058L17.2464 11.9524Z" fill="black"/>
</svg>
