<svg width="24" height="29" viewBox="0 0 24 29" fill="none" xmlns="http://www.w3.org/2000/svg">
<path d="M15.7035 5.44251C16.7024 5.44251 17.7014 5.44251 18.4006 5.13003C18.8002 4.29672 19 3.15093 19 2.00514C18.8002 2.00514 18.9001 1.69265 18.8002 1.58849C18.8002 1.38016 18.5005 1.38016 18.5005 1.17183C18.2009 0.963506 18.0011 0.755182 17.8013 0.546856C17.102 0.33853 16.4028 0.234367 15.6036 0.0260415C14.8045 0.0260415 13.7056 -0.078123 13.0064 0.130203C10.4092 0.130203 9.01066 1.276 7.71204 2.63011C7.71204 2.73428 7.71204 2.83844 7.61215 2.83844C7.01278 4.50505 7.51226 6.5883 7.41236 8.67156C7.51226 9.08821 7.51225 9.71319 7.61215 10.1298C6.61321 10.4423 5.41449 10.5465 4.21577 10.6507C3.91609 10.9631 4.01598 11.7965 4.01598 12.4214C4.11588 13.0464 4.31566 13.5672 4.41556 14.088C4.61534 14.2964 5.01492 14.5047 5.2147 14.6089C5.3146 14.6089 5.3146 14.713 5.3146 14.713C5.81406 15.0255 6.813 14.713 7.61215 14.8172C7.51225 16.9004 7.91183 18.8795 7.61215 20.7545C7.61215 21.067 7.91183 21.1711 7.81193 21.5878C7.81193 22.6294 7.71204 23.671 8.01172 24.4002C7.71204 24.921 7.51225 25.4418 7.61215 26.2751C7.71204 26.2751 7.71204 26.4834 7.71204 26.5876C7.61215 27.1084 8.3114 26.7959 8.21151 27.3167C8.4113 27.8375 7.81193 27.525 7.81193 27.8375V28.775C8.3114 29.0875 9.31033 28.9833 10.1095 28.9833C11.0085 28.5667 12.3071 28.4625 12.9065 27.7334C13.406 27.9417 13.8055 27.7334 14.1052 27.5251C14.1052 27.2126 14.4049 27.2126 14.305 26.7959C14.305 26.4834 14.1052 26.2751 14.2051 25.8584V22.8377C14.0053 20.442 14.2051 17.7337 13.9054 15.338C14.8045 15.2338 15.8034 15.2338 16.5027 14.9213C16.9022 14.4005 16.9022 13.6714 17.0021 12.9422C17.2019 12.7339 17.2019 12.3173 17.2019 11.9006C17.4017 11.6923 17.3018 11.1715 17.3018 10.7548C17.2019 10.1298 17.102 9.40071 16.5027 9.29654C15.6036 9.08822 14.5048 9.92152 13.5059 9.60903C13.5059 8.46324 13.2062 7.21328 13.5059 6.06749C14.305 5.85916 15.0043 5.65084 15.7035 5.44251ZM11.9076 10.4423C12.0075 10.7548 12.2072 10.9631 12.3071 11.1715C12.407 11.1715 12.5069 11.1715 12.5069 11.2756C13.7056 11.3798 14.7046 11.1715 15.6036 10.9631C15.6036 12.0048 15.3039 12.7339 15.1042 13.5672C14.4049 13.5672 13.6058 13.8797 13.1063 13.7755C12.8066 13.9839 12.7067 14.2964 12.5069 14.5047C12.5069 14.9213 12.6068 15.0255 12.5069 15.338C12.3071 15.4422 12.407 15.963 12.3071 16.1713V17.7337C12.407 18.0462 12.2072 18.0462 12.2072 18.2546V21.9003C12.1073 22.2127 12.3071 22.2127 12.3071 22.4211V25.546C12.407 25.8584 12.2072 26.3793 12.407 26.4834C12.3071 26.9001 12.0075 26.4834 11.6079 26.5876C11.1084 26.6917 10.7088 27.0042 10.1095 27.0042C10.2094 26.5876 10.4092 26.3793 10.4092 25.8584C10.4092 25.4418 10.0096 25.546 9.9097 25.3376C10.1095 24.7127 10.5091 24.1918 10.6089 23.4627C10.8087 22.9419 11.3082 22.1086 10.9086 21.5878C10.4092 21.4836 10.4092 21.9003 10.1095 22.0044C10.1095 22.1086 10.1095 22.2127 10.0096 22.2127C10.0096 22.3169 10.0096 22.4211 9.9097 22.4211C9.9097 22.5252 9.70991 22.5252 9.9097 22.4211C9.9097 22.3169 9.9097 22.2127 10.0096 22.2127C10.0096 22.1086 10.0096 22.0044 10.1095 22.0044V21.6919C10.5091 21.067 10.8087 20.442 10.9086 19.6087C11.1084 19.2962 11.2083 18.8795 11.3082 18.567C11.508 18.2546 11.6079 17.6296 11.4081 17.3171C10.9086 17.3171 10.609 17.6296 10.5091 18.0462C10.2094 17.8379 10.7088 17.6296 10.6089 17.3171C10.7088 17.1088 10.8087 16.6921 10.9086 16.4838C11.1084 16.0671 11.508 15.1297 10.9086 14.8172C10.5091 14.8172 10.3093 15.0255 10.2094 15.338C10.0096 15.5463 9.8098 15.7546 9.70991 16.0671C9.31034 15.963 9.61002 15.338 9.51012 14.9213C9.41023 14.4005 9.61002 13.9839 9.51012 13.6714C8.91076 12.8381 7.51225 13.5672 6.31353 13.3589C6.21364 13.0464 6.11375 12.3173 6.21364 12.1089C7.21257 12.0048 8.71098 12.3173 9.41023 11.9006C9.41023 11.7965 9.41023 11.6923 9.51012 11.6923C9.61002 10.9631 9.21044 10.6507 9.01066 10.234C9.21044 9.4007 9.01065 8.15075 9.11055 7.10912C9.31033 7.00496 9.41023 6.69247 9.61001 6.48414C9.70991 5.44251 10.3093 4.9217 10.3093 3.88007C10.0096 3.88007 9.70991 3.77591 9.70991 4.0884C9.41023 3.98423 9.31034 4.60921 9.21044 4.29672C9.11055 3.7759 9.41023 3.67174 9.51012 3.25509C10.1095 2.83844 10.7088 2.42179 11.4081 2.00514C13.1063 1.79681 16.0032 1.58848 17.5016 2.21346C17.6015 2.83844 17.2019 3.15093 17.3018 3.77591H15.8034C14.7046 3.98423 13.8055 4.50505 12.8066 4.81753C12.6068 4.9217 12.5069 5.13002 12.3071 5.23419C12.3071 5.65084 12.1074 5.85916 12.0075 6.27582C11.7078 7.7341 11.9076 8.98405 11.9076 10.4423Z" fill="black"/>
</svg>
