<svg width="24" height="29" viewBox="0 0 24 29" fill="none" xmlns="http://www.w3.org/2000/svg">
<path d="M22.8577 16.2C22.8577 13.8 22.5577 11.4 22.5577 9.1C22.5577 8.3 22.4577 7.6 22.3577 6.8C22.2577 6.5 22.2577 6.1 22.1577 5.7C21.8577 5.5 21.9577 5.1 21.6577 4.9C21.2577 4.7 20.4577 4.8 19.9577 4.7C19.2577 4.7 18.6577 4.6 18.0577 4.5C16.1577 4.4 14.0577 4.4 12.0577 4.4C10.0577 4.4 8.05774 4.3 6.35774 4H4.15774C4.05774 4 4.05774 4.1 3.95774 4.1C3.35774 4.1 2.85774 4.3 2.35774 4.4C2.15774 4.5 1.95774 4.6 1.65774 4.7C1.55774 4.9 1.15774 4.8 1.05774 5.1C0.857735 5.3 1.25774 5.6 1.05774 5.7V6.6C1.25774 6.7 1.05774 7.2 1.15774 7.4V8.4C1.15774 9.7 1.25774 10.8 1.25774 12.1C1.75774 14.9 1.65774 18.6 1.35774 21.5C1.55774 22.1 1.75774 22.6 1.85774 23.2C2.15774 23.7 2.15774 24.3 2.55774 24.7C3.05774 24.9 3.75774 24.9 4.45774 24.9C4.85774 25 5.15773 25.2 5.55773 25.2C8.35773 25 11.0577 25 13.9577 25C16.6577 25.2 19.7577 25.2 22.2577 24.8C22.4577 24.7 22.3577 24.3 22.4577 24C22.3577 23.6 22.6577 23.6 22.6577 23.2C22.8577 21.1 22.8577 18.7 22.8577 16.2ZM9.85774 10C10.6577 9.8 11.3577 9.7 12.2577 9.7C12.9577 9.8 13.5577 10 14.1577 10.2C14.2577 10.4 13.9577 10.7 14.3577 10.9V10.9C14.4577 10.9 14.4577 10.9 14.5577 11C14.9577 11 15.3577 11.2 15.6577 11.4C16.1577 11.5 16.1577 11.9 16.7577 11.8C16.6577 12 16.6577 12.3 16.6577 12.6C16.9577 13.8 17.1577 15.4 16.9577 16.9C16.7577 17.1 16.7577 17.3 16.6577 17.6C16.3577 17.9 16.1577 18.4 15.8577 18.7C15.7577 18.9 15.5577 19.1 15.3577 19.2C15.2577 19.4 15.1577 19.7 14.8577 19.7C14.5577 19.9 14.2577 19.7 14.0577 19.6C13.6577 19.8 13.1577 19.9 12.8577 20.2C12.0577 20.1 11.2577 20 10.4577 19.9C10.2577 19.8 9.95774 19.6 9.65774 19.6C9.45774 19.4 9.15774 19.2 8.85774 19.1C8.75774 19 8.55774 19 8.35774 18.9C8.15774 18.9 8.15774 18.7 7.85774 18.7C7.75774 18.3 7.45774 18.1 7.35774 17.6C7.15774 17.3 7.05774 16.8 6.85774 16.4C6.85774 15 6.95774 13.7 7.25774 12.6C7.55774 12 8.05774 11.5 8.35774 10.9C8.55774 10.9 8.75774 10.8 8.75774 10.6C9.05774 10.7 9.15774 10.5 9.45774 10.5C9.65774 10.5 9.65774 10.2 9.85774 10ZM8.15774 7.3C8.05774 7 8.05773 6.6 8.05773 6.2C8.05773 5.9 8.35774 5.9 8.35774 5.7C8.35774 5.6 8.25774 5.6 8.15774 5.6C8.25774 5.5 8.85774 5.5 8.95774 5.6C9.05774 6.1 8.55774 6.1 8.45774 6.3C8.45774 6.5 8.75774 6.3 8.95774 6.4C8.95774 7.3 8.85774 7.9 8.95774 8.6H8.45774C8.45774 8.8 8.65774 8.8 8.95774 8.8C8.85774 9.1 9.05774 9.2 9.05774 9.4C8.85774 9.6 8.35774 9.4 7.95774 9.5C7.95774 8.9 8.25774 8.1 8.15774 7.3ZM7.45774 5.7C7.55774 5.7 7.55774 5.7 7.65774 5.8C7.85774 6.1 7.65773 6.5 7.55773 6.7C7.35773 6.5 7.55774 6 7.45774 5.7ZM7.65774 7.5C7.55774 7.4 7.45774 7.3 7.45774 7C7.65774 7.1 7.65774 7.3 7.65774 7.5ZM7.65774 8.9C7.55774 9 7.55773 8.9 7.55773 8.7C7.65773 8.6 7.65774 8.8 7.65774 8.9ZM7.45774 9.1C7.65774 9.1 7.55774 9.3 7.65774 9.3C7.65774 9.5 7.35774 9.5 7.25774 9.4C7.35774 9.3 7.45774 9.2 7.45774 9.1ZM5.15774 7.9C5.15774 7.8 5.15773 7.7 5.05773 7.7C4.95773 7 5.15773 6.3 5.05773 5.7C5.35773 5.5 5.85774 5.7 6.15774 5.6V6.7C6.05774 6.8 5.95774 6.8 5.75774 6.8C5.65774 7.1 6.05774 6.9 6.15774 7.1C6.15774 8 6.05774 8.9 6.35774 9.5C5.75774 9.4 5.45774 9.6 4.95774 9.6C5.05774 9 4.95774 8.2 5.45774 8C5.45774 7.9 5.15774 8 5.15774 7.9ZM4.65774 7.9C4.45774 7.9 4.45773 7.4 4.55773 7.3C4.85773 7.3 4.75774 7.8 4.65774 7.9ZM4.45774 8.9C4.55774 8.6 4.45773 8.6 4.55773 8.2C4.75773 8.2 4.75774 9 4.45774 8.9ZM4.65774 6.8C4.35774 6.9 4.35774 6.5 4.45774 6.4C4.75774 6.4 4.85774 6.7 4.65774 6.8ZM4.65774 5.7C4.65774 5.9 4.55773 5.9 4.55773 6C4.35773 6 4.45774 5.8 4.35774 5.8C4.45774 5.7 4.55774 5.7 4.65774 5.7ZM4.45774 9.4C4.55774 9.4 4.55774 9.7 4.35774 9.6C4.45774 9.6 4.45774 9.5 4.45774 9.4ZM3.75774 5.7C3.75774 6 3.35774 6 3.35774 5.7H3.75774ZM2.75774 5.8C2.75774 6 2.45774 6 2.35774 6.2C2.15774 6 2.45774 5.7 2.75774 5.8ZM2.35774 6.5C2.55774 6.3 2.85773 6.1 3.05773 5.9C3.05773 5.8 3.15774 5.8 3.15774 5.7H3.35774C3.45774 6.1 3.05773 6 3.05773 6.2C3.05773 6.3 2.95774 6.3 2.95774 6.4C2.95774 6.7 3.05773 7 3.05773 7.4C2.75773 7.4 2.75774 7.7 2.45774 7.6C2.45774 7.2 2.25774 7 2.35774 6.5ZM2.45774 9.8V8.2C2.65774 8 2.85773 7.8 3.05773 7.7C3.35773 8.2 3.25773 9.1 3.55773 9.6C3.15773 9.7 2.75774 9.7 2.45774 9.8ZM20.6577 20.9C20.5577 21.9 20.4577 22.9 20.2577 23.7C17.3577 23.8 14.2577 23.7 11.3577 23.9C11.1577 23.9 11.0577 23.9 11.1577 23.7C10.8577 23.7 10.8577 23.9 10.6577 23.9C10.8577 23.6 11.0577 23 10.8577 22.6C10.0577 22.6 10.0577 23.4 9.75774 23.9C9.05774 23.8 8.65774 24 7.95774 24C8.15774 23.3 8.65774 23 8.85774 22.3C8.45774 21.8 7.85774 22.4 7.65774 22.8C7.45774 23.3 7.05774 23.6 6.85774 24.1H5.85774C6.05774 23.6 6.35774 23.2 6.65774 22.7C6.85774 22.2 7.25774 22 7.35774 21.3C7.15774 21 6.95774 21.3 6.65774 21.3C6.55774 21.5 6.35774 21.6 6.25774 21.8C6.05774 22.2 5.75773 22.5 5.55773 22.9C5.35773 23.1 5.25773 22.9 5.05773 23.1C4.65773 23.4 4.45773 23.8 4.05773 24.1C3.85773 24 4.05774 23.7 4.25774 23.7C4.25774 23.5 4.15774 23.2 4.35774 23.1C4.45774 22.7 4.55774 22.5 4.75774 22.2C4.85774 21.5 5.25774 21 5.45774 20.3C4.85774 20.4 4.75774 20.9 4.45774 21.3C4.25774 21.7 3.95774 22.1 3.75774 22.6C3.55774 22.5 3.75774 22 3.65774 21.8C3.75774 21.2 3.95773 20.7 4.05773 20.1C4.15773 19.9 4.25774 19.6 4.25774 19.3C4.45774 19.1 4.25774 18.7 4.15774 18.5C3.95774 18.5 3.75774 18.6 3.65774 18.8C3.45774 18.8 3.45774 19.3 3.35774 19.1C3.35774 16.5 2.85774 14.3 2.85774 11.7C2.85774 11.4 2.65774 11.3 2.65774 11C4.25774 11 5.75774 11.1 7.45774 11.2C7.35774 11.3 7.25774 11.5 7.15774 11.6C7.05774 11.7 6.95774 11.8 6.75774 11.9C6.15774 13.6 5.75774 15.9 6.15774 18.1C6.35774 18.7 6.75774 19.1 7.15774 19.5C8.05774 20 8.75774 20.6 9.65774 21.2C11.3577 21.6 13.4577 21.6 15.1577 21.2C15.3577 21.1 15.6577 21 15.8577 20.8C17.2577 19.6 18.6577 18.3 18.8577 15.9V14.5C18.6577 12.9 18.1577 11.6 17.1577 10.9C17.4577 10.7 18.2577 10.9 18.8577 11C19.0577 11 19.2577 11 19.5577 11C19.9577 11 20.4577 10.9 20.9577 11C21.0577 11.2 21.0577 11.5 21.1577 11.8C21.0577 13.5 20.9577 15.1 20.9577 16.9C21.0577 17.4 21.0577 17.9 21.1577 18.3C20.9577 19.1 20.8577 20 20.6577 20.9ZM21.0577 9.7C20.4577 9.6 19.8577 9.4 19.1577 9.3C19.2577 9 19.9577 9.3 20.1577 9.1C20.5577 8.9 20.4577 8.2 20.4577 7.6C20.4577 7.3 20.5577 7 20.5577 6.5C20.1577 5.5 18.7577 6.1 17.6577 6C17.4577 6.7 17.1577 7.8 17.3577 8.7C17.5577 9.2 18.3577 9 18.8577 9.2C18.7577 9.5 18.1577 9.3 17.8577 9.3C17.5577 9.2 17.1577 9.2 16.8577 9.1C14.5577 9.2 12.5577 9.1 10.3577 9.3C10.4577 8.1 10.4577 6.8 10.2577 5.7H13.3577C13.0577 6.1 12.4577 6.2 12.0577 6.5C11.6577 6.7 11.1577 7 10.9577 7.4C11.1577 7.5 11.4577 7.2 11.7577 7C12.1577 6.9 12.2577 6.6 12.5577 6.5C12.9577 6.1 13.6577 5.9 14.2577 5.6C14.6577 5.6 14.9577 5.6 15.2577 5.7C16.5577 5.7 17.7577 5.8 19.0577 5.8C19.6577 5.9 20.5577 5.9 21.0577 6.1C21.1577 6.4 21.2577 6.7 21.3577 7C21.2577 8 21.0577 8.8 21.0577 9.7ZM15.1577 6C15.2577 5.9 15.1577 5.9 15.1577 6V6ZM15.1577 6C14.6577 6.2 14.1577 6.3 13.7577 6.7C14.2577 6.5 14.8577 6.4 15.1577 6ZM16.2577 6.6C16.3577 6.5 16.2577 6.5 16.2577 6.6V6.6ZM14.4577 7.5C15.1577 7.3 15.6577 6.9 16.1577 6.6C15.7577 6.6 15.5577 6.9 15.1577 7C15.0577 7.2 14.6577 7.2 14.4577 7.5ZM13.7577 6.7C13.6577 6.7 13.8577 6.8 13.7577 6.7V6.7ZM13.1577 7.3C13.2577 7.2 13.1577 7.2 13.1577 7.3V7.3ZM13.0577 7.4C13.1577 7.4 13.1577 7.3 13.0577 7.4C13.0577 7.3 13.0577 7.3 13.0577 7.4ZM12.9577 7.4C13.0577 7.4 13.0577 7.4 12.9577 7.4C12.9577 7.3 12.9577 7.4 12.9577 7.4ZM12.1577 8C12.4577 7.9 12.7577 7.7 12.9577 7.4C12.6577 7.6 12.3577 7.8 12.1577 8ZM14.4577 9C14.9577 9 15.1577 8.6 15.6577 8.5C15.9577 8.2 16.4577 8.1 16.6577 7.7C16.0577 7.7 15.8577 8.1 15.4577 8.2C15.1577 8.6 14.6577 8.7 14.4577 9ZM12.1577 8C11.8577 8 12.1577 8.3 12.1577 8V8ZM11.5577 8.4C11.6577 8.4 11.7577 8.4 11.5577 8.4C11.6577 8.3 11.5577 8.4 11.5577 8.4ZM14.4577 9C14.2577 9.1 14.4577 9.1 14.4577 9V9ZM13.2577 10.8C13.0577 10.6 12.5577 10.6 12.2577 10.4C11.5577 10.4 11.0577 10.5 10.5577 10.6C10.2577 10.8 9.95774 10.9 9.65774 11.1C9.35774 11.3 9.25774 11.5 8.85774 11.6C8.65774 11.8 8.45774 12.1 8.15774 12.2C8.15774 12.4 7.95774 12.5 7.85774 12.6C7.75774 12.7 7.75774 12.9 7.65774 13C7.65774 13.1 7.65773 13.3 7.55773 13.3C7.65773 14.8 7.85774 16.2 8.25774 17.5C8.55774 18.1 9.25774 18.3 9.65774 18.8C10.2577 19.1 10.9577 19.2 11.7577 19.3C12.0577 19.2 12.3577 19.2 12.6577 19.2C13.8577 19 14.7577 18.5 15.4577 17.8C15.5577 17.5 15.7577 17.3 15.9577 17.1C15.6577 16.4 16.2577 16 16.4577 15.5C16.4577 14.2 16.2577 13 15.8577 12.1C15.5577 11.5 14.9577 11.3 14.4577 11C14.3577 11 14.2577 11 14.2577 10.9C14.0577 10.8 13.5577 10.7 13.2577 10.8ZM9.85774 15.2C9.75774 15.1 9.75774 15 9.65774 14.8C9.95774 14.7 9.85774 15 9.85774 15.2ZM9.95774 15.5C9.95774 15.4 10.0577 15.5 9.95774 15.5C9.95774 15.7 9.95774 15.6 9.95774 15.5ZM10.3577 13.4C10.3577 13.3 10.4577 13.4 10.3577 13.4C10.4577 13.5 10.3577 13.5 10.3577 13.4ZM12.0577 11.3C11.8577 11.6 12.0577 11.9 12.1577 12.1C11.8577 12.1 11.5577 11.3 12.0577 11.3ZM12.4577 15.2C12.3577 15.2 12.4577 15.2 12.4577 15.2C12.5577 15.2 12.4577 15.3 12.4577 15.2ZM13.1577 18.1C13.1577 18 13.2577 18.1 13.3577 18.1C13.3577 18.2 13.1577 18.2 13.1577 18.1ZM15.3577 15.6C15.1577 15.5 15.2577 15.8 14.9577 15.8C15.0577 15.6 15.0577 15.5 15.1577 15.3C15.3577 15.3 15.4577 15.4 15.3577 15.6ZM14.2577 11.8C14.4577 11.9 14.6577 12 14.8577 12.2C14.9577 12.4 15.0577 12.6 15.2577 12.7C15.3577 13.5 15.4577 14.2 15.4577 15.1C15.1577 15.2 15.0577 15.4 14.7577 15.5C13.9577 15.5 13.3577 15.3 12.8577 15C12.6577 14.7 12.4577 14.5 12.3577 14.2V13.1C12.5577 12.9 12.6577 12.7 12.8577 12.5C13.0577 12.4 13.3577 12.3 13.3577 11.9C13.3577 11.8 13.2577 11.8 13.2577 11.7C13.4577 11.7 13.4577 11.9 13.6577 11.9C13.8577 11.9 13.9577 11.7 14.2577 11.8Z" fill="black"/>
</svg>
