<svg width="86" height="35" viewBox="0 0 86 35" fill="none" xmlns="http://www.w3.org/2000/svg">
<path d="M4.54732 26.3185C4.54732 22.8185 4.24733 19.4185 4.14733 15.9185C4.14733 15.6185 4.14733 15.2185 4.14733 14.9185C4.14733 15.0185 4.24732 15.1185 4.24732 15.3185C4.74732 16.7185 5.34732 18.0185 6.04732 19.2185C6.74732 20.4185 7.14732 21.8185 7.54732 23.1185C7.34732 23.3185 7.24733 23.5185 7.34733 23.7185C7.34733 23.9186 7.44732 23.9185 7.54732 24.0185C8.04732 24.5185 9.04733 24.2185 9.64733 24.0185C9.84733 23.9185 10.1473 23.8185 10.3473 23.6185C10.6473 23.4185 11.0473 23.0185 10.9473 22.6185C10.9473 22.5185 10.9473 22.4185 10.8473 22.4185C11.2473 21.3185 11.4473 20.2185 11.6473 19.1185C11.8473 17.9185 12.3473 16.8185 12.7473 15.6185C12.7473 16.1185 12.8473 16.6185 12.8473 17.2185C13.0473 19.3185 12.8473 21.5185 12.8473 23.6185C12.8473 24.3185 12.8473 25.0185 13.0473 25.7185C13.1473 26.0185 13.3473 27.2185 13.2473 27.3185C12.7473 27.8185 12.8473 28.4185 13.5473 28.5185C14.3473 28.7185 15.3473 28.4185 15.8473 27.9185C16.8473 27.0185 16.3473 25.5185 16.1473 24.3185C15.7473 22.3185 16.2473 20.1185 16.1473 18.1185C16.0473 15.8185 15.7473 13.6185 15.7473 11.3185C15.7473 9.51855 16.0473 7.61855 15.4473 5.81855C15.4473 5.61855 15.5473 5.41855 15.5473 5.21855C15.7473 4.31855 12.7473 4.81855 12.3473 5.61855C12.0473 5.81855 11.9473 6.11855 12.0473 6.41855C12.0473 6.51855 12.1473 6.51855 12.1473 6.61855C11.5473 9.31855 10.8473 11.9185 9.94733 14.5185C9.64733 15.5185 9.24733 16.5185 8.84733 17.5185C8.34733 16.6185 7.84733 15.6185 7.44733 14.7185C6.24733 11.8185 5.24733 8.91855 3.84733 6.11855C4.04733 4.81855 1.14732 4.91855 0.547324 6.11855C-0.152676 7.51855 -0.0526737 9.01855 0.147326 10.5185C0.447326 12.2185 0.447326 13.9185 0.447326 15.6185C0.447326 18.9185 0.747327 22.3185 0.847327 25.6185C0.547327 25.9185 0.447325 26.3185 0.747325 26.8185C0.847325 27.0185 1.04732 27.1185 1.24732 27.3185C2.44732 28.0185 4.54732 27.5185 4.54732 26.3185Z" fill="black"/>
<path d="M22.7473 7.91859C22.6473 7.31859 19.3473 8.01859 19.4473 8.81859C19.7473 10.6186 19.6473 12.4186 19.5473 14.2186C19.5473 15.9186 19.9473 17.5186 20.1473 19.2186C20.3473 20.9186 20.0473 22.7186 20.2473 24.4186C20.3473 25.2186 20.8473 26.7186 20.3473 27.4186C19.9473 27.8186 21.5473 27.7186 21.6473 27.7186C22.2473 27.6186 23.1473 27.4186 23.5473 26.8186C24.1473 26.1186 23.7473 24.8186 23.5473 24.0186C23.2473 22.3186 23.4473 20.5186 23.3473 18.7186C23.2473 17.0186 22.7473 15.4186 22.6473 13.8186C22.9473 11.8186 23.0473 9.91859 22.7473 7.91859Z" fill="black"/>
<path d="M25.9474 14.6185C26.8474 17.1185 30.5474 15.9185 32.5474 16.1185C35.7474 16.3185 34.8474 20.7185 34.8474 22.7185C34.8474 23.8185 35.8474 25.6185 35.0474 26.5185C34.5474 27.1185 33.3474 27.1185 32.6474 27.1185C31.9474 27.2185 30.7474 27.4185 30.3474 26.7185C29.5474 25.5185 30.4474 23.5185 30.2474 22.1185C30.1474 21.3185 26.8474 22.0185 26.9474 23.0185C27.2474 25.2185 25.7474 28.2185 28.9474 28.6185C31.0474 28.8185 33.3474 28.5185 35.2474 27.8185C36.2474 27.5185 37.1474 27.0185 37.9474 26.3185C38.8474 25.5185 38.5474 24.3185 38.3474 23.3185C37.7474 20.8185 38.9474 18.0185 37.3474 15.8185C35.6474 13.5185 32.3474 15.1185 30.1474 14.5185C28.9474 14.3185 28.9474 12.7185 28.9474 11.7185C28.9474 10.5185 28.8474 9.41854 28.7474 8.21854C28.6474 7.31854 28.7474 6.41854 29.3474 5.81854C29.4474 5.71854 30.0474 5.51854 30.0474 5.51854C30.3474 5.41854 30.6474 5.41854 30.9474 5.41854C32.2474 5.31854 34.8474 5.61854 34.3474 7.51854C34.1474 8.41854 37.3474 7.91854 37.6474 7.01854C38.6474 3.11854 31.5474 3.91854 29.4474 4.41854C27.5474 4.91854 25.5474 6.01854 25.4474 8.11854C25.3474 9.11854 25.6474 10.1185 25.7474 11.1185C25.7474 12.3185 25.4474 13.5185 25.9474 14.6185Z" fill="black"/>
<path d="M40.3472 16.5185C40.2472 18.3185 40.1472 20.1185 40.1472 21.9185C40.1472 22.8185 40.2472 23.7185 40.4472 24.7185C40.5472 25.5185 40.8472 26.7185 40.6472 27.5185C40.4472 28.1185 43.6472 27.7185 43.9472 26.9185C44.4472 25.4185 43.7472 23.5185 43.6472 22.0185C43.5472 20.5185 43.6472 19.1185 43.7472 17.6185C45.4472 17.5185 47.1472 17.4185 48.8472 17.6185C48.9472 18.8185 49.0472 19.9185 49.1472 21.1185C49.2472 22.1185 49.3472 23.0185 49.3472 24.0185C49.3472 24.9185 49.4472 26.1185 49.1472 26.9185C48.4472 28.6185 51.8472 28.5185 52.2472 27.2185C52.8472 25.6185 52.6472 23.7185 52.5472 22.0185C52.2472 19.8185 51.9472 17.8185 51.9472 15.7185C51.8472 12.5185 51.3472 9.41853 51.3472 6.21853C51.3472 4.51853 48.0472 5.11853 48.0472 6.51853C48.0472 9.51853 48.4472 12.5185 48.6472 15.6185C48.6472 15.7185 48.6472 15.7185 48.6472 15.8185C47.0472 15.8185 45.3472 15.9185 43.7472 16.0185C43.9472 12.1185 43.2472 8.21853 43.3472 4.31853C43.3472 3.81853 40.0472 4.21853 40.0472 5.21853C39.8472 9.01853 40.4472 12.7185 40.3472 16.5185Z" fill="black"/>
<path d="M54.4473 21.8186C54.1473 22.1185 54.2473 22.2185 54.4473 22.3186C54.4473 23.8186 54.4473 25.2186 54.2473 26.7186C53.8473 27.3186 54.6473 27.7186 55.1473 27.7186H55.2473C55.8473 27.7186 57.4473 27.4185 57.5473 26.6185C57.7473 24.8186 57.7473 23.1185 57.7473 21.3186C59.0473 19.9186 60.1473 18.2186 61.1473 16.6186C61.7473 17.8186 62.3473 19.1186 62.8473 20.5186C63.5473 22.8186 64.7473 24.9186 65.4473 27.3186C65.9473 28.8186 69.2473 27.9185 68.7473 26.4185C68.0473 24.1185 66.8473 21.9185 66.1473 19.6185C65.3473 17.3185 64.1473 15.2186 63.1473 13.0186C63.9473 11.4186 64.8473 9.71855 65.6473 8.01855C66.3473 6.51855 66.8473 4.81855 68.2473 3.71855C68.7473 3.31855 68.7473 2.91855 68.0473 2.91855C67.3473 2.81855 66.3473 3.11855 65.7473 3.51855C64.4473 4.51855 63.7473 5.71855 63.0473 7.11855C62.2473 8.81855 61.4473 10.5186 60.5473 12.2186C60.4473 12.3186 60.4473 12.4186 60.3473 12.6186C59.9473 12.9186 59.6473 13.2186 59.8473 13.7186C59.1473 15.0186 58.5473 16.3186 57.7473 17.6186C57.4473 12.9186 56.9473 8.31855 56.7473 3.61855C56.7473 2.51855 53.4473 3.21855 53.4473 4.51855C53.6473 10.2186 54.4473 16.0185 54.4473 21.8186Z" fill="black"/>
<path d="M85.9472 15.6186C85.7472 14.9186 84.7472 14.9186 84.0472 15.0186C84.0472 14.7186 84.0472 14.4186 84.0472 14.2186C83.9472 12.0186 83.9472 9.71859 83.7472 7.41858C83.5472 5.31858 82.4472 4.61858 80.4472 4.71858C78.4472 4.81858 76.0472 5.11858 74.1472 5.91858C71.9472 6.81858 70.7472 8.41858 70.3472 10.7186C69.8472 13.2186 70.5472 15.9186 70.6472 18.5186C70.7472 21.5186 70.7472 24.4186 70.7472 27.4186C70.7472 27.9186 74.0472 27.4186 74.0472 26.5186C74.0472 24.2186 74.0472 21.8186 74.0472 19.5186C74.0472 18.8186 74.0472 18.1186 73.9472 17.4186C75.1472 16.9186 77.0472 17.4186 78.2472 17.5186C79.1472 17.6186 80.0472 17.4186 80.9472 17.3186C80.9472 19.2186 81.0472 21.2186 81.1472 23.2186C81.1472 24.2186 81.5472 26.2186 80.8472 27.0186C80.4472 27.4186 82.0472 27.3186 82.1472 27.3186C82.8472 27.2186 83.6472 27.0186 84.0472 26.4186C84.8472 25.5186 84.4472 23.2186 84.3472 22.1186C84.2472 20.5186 84.2472 18.9186 84.2472 17.3186C85.0472 16.9186 86.1472 16.3186 85.9472 15.6186ZM79.3472 15.4186C77.4472 15.4186 75.5472 15.1186 73.6472 15.4186C73.5472 14.3186 73.4472 13.3186 73.3472 12.2186C73.2472 10.2186 73.4472 7.51858 75.2472 6.31858C75.7472 6.01858 76.6472 6.01858 77.2472 5.91858C78.0472 5.81858 78.8472 5.61858 79.6472 6.11858C80.6472 6.81858 80.4472 9.21858 80.4472 10.2186C80.4472 11.9186 80.6472 13.6186 80.7472 15.3186C80.2472 15.4186 79.7472 15.4186 79.3472 15.4186Z" fill="black"/>
<path d="M19.1473 4.11856C19.1473 4.31856 19.1473 4.51856 19.2473 4.61856V4.71856C19.2473 4.81856 19.2473 4.91856 19.2473 5.01856C19.3473 5.21856 19.4473 5.31856 19.6473 5.41856C19.9473 5.61856 20.3473 5.61856 20.7473 5.61856C21.1473 5.61856 21.6473 5.41856 21.9473 5.21856C22.0473 5.11856 22.0473 5.11856 22.1473 5.01856C22.5473 4.71856 22.9473 4.31856 22.7473 3.91856C22.3473 3.01856 22.3473 2.01856 22.4473 1.01856C22.4473 0.218559 21.6473 -0.0814409 20.9473 0.0185591C20.3473 0.118559 19.1473 0.518558 19.1473 1.31856C19.1473 2.11856 19.0473 3.01856 19.2473 3.81856C19.1473 3.91856 19.1473 4.01856 19.1473 4.11856Z" fill="black"/>
<path d="M80.6473 33.3186C79.0473 32.7186 77.3473 32.7186 75.7473 32.5186C74.1473 32.3186 72.5473 32.1186 70.8473 31.9186C69.2473 32.0186 67.5473 31.9186 65.8473 32.0186L60.9473 32.3186C54.4473 32.6186 47.9473 32.6186 41.4473 32.4186C34.9473 32.3186 28.4473 31.9186 21.8473 31.9186C18.5473 31.9186 15.2473 32.0186 11.9473 32.2186C10.3473 32.5186 8.74731 32.7186 7.04731 33.1186C5.44731 33.5186 3.94731 34.0186 2.24731 34.1186C3.84731 34.5186 5.54731 34.4186 7.24731 34.4186C8.84731 34.4186 10.4473 34.5186 12.1473 34.6186C15.3473 34.4186 18.6473 34.4186 21.8473 34.3186C28.3473 34.3186 34.8473 34.6186 41.4473 34.8186C47.9473 34.9186 54.5473 35.0186 61.1473 34.7186L66.0473 34.4186C67.6473 34.3186 69.2473 34.3186 70.8473 34.3186C72.4473 34.2186 74.1473 34.0186 75.7473 33.8186C77.4473 33.6186 78.9473 33.2186 80.6473 33.3186H80.7473V33.2186C80.7473 33.0186 80.7473 32.9186 80.7473 32.7186C80.7473 33.1186 80.7473 33.2186 80.6473 33.3186Z" fill="black"/>
</svg>
