<svg width="102" height="34" viewBox="0 0 102 34" fill="none" xmlns="http://www.w3.org/2000/svg">
<path d="M19.2693 21.3813C19.1691 18.6962 18.7681 16.1105 18.7681 13.4255C18.7681 11.2376 19.1691 9.04976 18.3671 6.96135C18.3671 6.76246 18.4673 6.46411 18.4673 6.26522C18.6678 5.27074 15.1589 5.76798 14.6576 6.76246C14.3569 7.0608 14.1564 7.35914 14.2566 7.75694C14.2566 7.85638 14.3569 7.95583 14.3569 8.05528C13.6551 11.2376 12.7528 14.3205 11.7503 17.4034C11.3492 18.5967 10.848 19.6907 10.4469 20.884C9.84541 19.7901 9.24388 18.6962 8.84287 17.5028C7.4393 14.1216 6.23625 10.6409 4.53192 7.35914C4.73243 5.86743 1.32377 5.96688 0.621988 7.35914C-0.180049 9.04976 -0.0797945 10.7404 0.220969 12.5304C0.521733 14.5194 0.621988 16.5083 0.621988 18.5967C0.621988 22.5746 1.02301 26.4531 1.02301 30.431C0.621988 30.8288 0.521733 31.326 0.922752 31.8233C1.12326 32.0222 1.32377 32.2211 1.52428 32.3205C2.52683 33.0167 5.13345 32.42 5.13345 31.0277C5.13345 26.9503 4.83268 22.873 4.73243 18.6962C4.73243 18.2984 4.73243 17.9006 4.73243 17.5028C4.83268 17.6023 4.83268 17.8012 4.93294 17.9006C5.53446 19.4918 6.23625 21.0829 7.13854 22.5746C8.04083 24.0664 8.44185 25.6575 8.94312 27.2487C8.74261 27.4476 8.64236 27.7459 8.74261 27.9448C8.74261 28.1437 8.84287 28.2432 9.04338 28.3426C9.6449 28.8399 10.848 28.641 11.5497 28.3426C11.8505 28.2432 12.1513 28.0443 12.3518 27.9448C12.6525 27.7459 13.2541 27.2487 13.0536 26.7515C13.0536 26.652 12.9533 26.5526 12.9533 26.4531C13.4546 25.1603 13.6551 23.8675 13.9559 22.5746C14.2566 21.1824 14.7579 19.7901 15.2592 18.4973C15.3594 19.094 15.3594 19.6907 15.4597 20.3868C15.6602 22.9724 15.4597 25.4586 15.4597 27.9448C15.4597 28.7404 15.5599 29.536 15.6602 30.431C15.7604 30.7294 16.0612 32.2211 15.9609 32.3205C15.1589 32.8178 15.3594 33.4144 16.1615 33.6133C17.0637 33.8122 18.2668 33.5139 18.9686 32.9172C20.1716 31.8233 19.5701 30.1327 19.3696 28.7404C18.8683 26.3537 19.3696 23.768 19.2693 21.3813Z" fill="black"/>
<path d="M27.6907 22.0774C27.5905 20.0884 26.8887 18.1989 26.8887 16.21C26.8887 13.9227 27.0892 11.6354 26.6882 9.34808C26.5879 8.65195 22.5778 9.44753 22.7783 10.3426C23.079 12.431 22.9788 14.5194 22.9788 16.7072C22.9788 18.6962 23.4801 20.5857 23.6806 22.5746C23.9813 24.663 23.5803 26.7514 23.7808 28.7404C23.8811 29.7349 24.5829 31.4255 23.8811 32.3205C23.4801 32.8177 25.3849 32.6189 25.4851 32.6189C26.2872 32.5194 27.2897 32.2211 27.791 31.6244C28.4928 30.8288 27.9915 29.2376 27.8913 28.2432C27.5905 26.2542 27.791 24.0663 27.6907 22.0774Z" fill="black"/>
<path d="M44.0322 18.7956C41.9269 16.0111 38.1172 18.0001 35.4104 17.3039C34.0068 16.9061 34.0068 15.0166 34.0068 13.9227C34.0068 12.5304 33.9065 11.2376 33.706 9.84534C33.6058 8.75142 33.706 7.75694 34.4078 6.96136C34.5081 6.86191 35.3101 6.66302 35.2098 6.66302C35.6109 6.56357 35.9116 6.56357 36.3126 6.56357C37.8165 6.46412 40.9244 6.76247 40.3228 9.04976C40.0221 10.0442 43.932 9.44755 44.2328 8.45308C45.4358 3.87848 36.9142 4.77351 34.5081 5.3702C32.3025 5.96688 29.8963 7.16026 29.6958 9.7459C29.5956 10.9393 29.9966 12.1326 29.9966 13.326C30.0969 14.7183 29.7961 16.1106 30.2974 17.4034C31.4002 20.3868 35.8114 18.9945 38.1172 19.094C41.9269 19.3923 40.8241 24.5636 40.8241 26.9504C40.8241 28.2432 42.0272 30.3316 41.0246 31.4255C40.4231 32.1216 39.0195 32.1216 38.2175 32.2211C37.4154 32.3205 36.0119 32.5194 35.5106 31.7238C34.5081 30.3316 35.6109 27.9448 35.4104 26.3537C35.3101 25.4586 31.2999 26.2542 31.5004 27.3481C31.8012 29.9338 30.0969 33.4145 33.9065 33.9117C36.3126 34.21 39.1198 33.7128 41.4256 33.0167C42.6287 32.6189 43.7315 32.1216 44.6338 31.2266C45.6363 30.3316 45.3356 28.9393 45.0348 27.7459C44.5335 24.6631 45.9371 21.2818 44.0322 18.7956Z" fill="black"/>
<path d="M61.4765 18.5966C61.3763 14.8176 60.7748 11.1381 60.7748 7.35905C60.7748 5.37009 56.7646 6.06623 56.7646 7.65739C56.7646 11.2375 57.2659 14.8176 57.4664 18.3977C57.4664 18.4972 57.4664 18.4972 57.4664 18.5966C55.5615 18.5966 53.5564 18.7955 51.5513 18.7955C51.7518 14.2209 50.9498 9.64634 51.1503 4.9723C51.1503 4.37561 47.2404 4.87285 47.2404 5.96678C47.0399 10.4419 47.8419 14.8176 47.7417 19.2928C47.6414 21.3812 47.5412 23.569 47.4409 25.6574C47.4409 26.7514 47.6414 27.8453 47.7417 28.9392C47.8419 29.9337 48.2429 31.2265 47.9422 32.221C47.7417 33.0166 51.5513 32.5193 51.8521 31.5248C52.3534 29.7348 51.6516 27.5469 51.4511 25.7569C51.2506 24.0663 51.4511 22.2762 51.5513 20.5856C53.5564 20.4861 55.6618 20.2873 57.6669 20.5856C57.7671 21.9779 57.8674 23.3701 57.9676 24.663C58.0679 25.8563 58.1681 26.9502 58.1681 28.1436C58.1681 29.1381 58.2684 30.6298 57.9676 31.6243C57.1656 33.7127 61.0755 33.5138 61.6771 32.0221C62.3788 30.1326 62.1783 27.8453 62.0781 25.8563C61.8776 23.3701 61.4765 20.9834 61.4765 18.5966Z" fill="black"/>
<path d="M78.4196 22.9725C77.5173 20.188 76.0135 17.8012 74.8104 15.2156C75.8129 13.3261 76.8155 11.3371 77.7178 9.34818C78.5198 7.55812 79.1213 5.56917 80.8257 4.27635C81.4272 3.87856 81.4272 3.38132 80.5249 3.28187C79.6226 3.18242 78.4196 3.48077 77.7178 3.97801C76.3142 5.27083 75.3117 6.66309 74.6099 8.35371C73.7076 10.4421 72.7051 12.4311 71.7025 14.42C71.6023 14.5195 71.6022 14.7184 71.502 14.8178C71.0007 15.1162 70.7 15.6134 70.9005 16.1106C70.0984 17.7018 69.2964 19.1935 68.3941 20.6852C68.0933 15.2156 67.3916 9.64653 67.191 4.1769C67.191 2.88408 63.1809 3.67966 63.2811 5.17138C63.4816 12.0333 64.4842 18.7957 64.5844 25.6576C64.5844 25.6576 64.5844 25.6576 64.5844 25.7571C64.2837 26.0554 64.3839 26.2543 64.6847 26.3537C64.6847 28.1438 64.5844 29.8344 64.4842 31.6245C63.9829 32.3206 64.9854 32.7184 65.587 32.7184H65.6872C66.389 32.7184 68.2938 32.4201 68.3941 31.3261C68.5946 29.2377 68.6949 27.1493 68.5946 25.0609C70.1987 23.3703 71.502 21.4808 72.7051 19.4919C73.5071 20.9836 74.2089 22.4753 74.7101 24.0664C75.6124 26.7515 77.016 29.3372 77.818 32.0223C78.3193 33.8123 82.3295 32.7184 81.728 31.0278C80.7254 28.2433 79.3219 25.7571 78.4196 22.9725Z" fill="black"/>
<path d="M101.979 18.3979C101.779 17.6023 100.576 17.6023 99.6736 17.6023C99.6736 17.304 99.6736 16.9062 99.6736 16.6078C99.5733 13.9228 99.4731 11.2377 99.2726 8.65203C99.0721 6.16584 97.6685 5.37026 95.2624 5.4697C92.8563 5.56915 90.0491 5.96694 87.7433 6.86197C85.1367 7.85645 83.6329 9.74596 83.1316 12.5305C82.6303 15.5139 83.3321 18.6963 83.5326 21.6797C83.7331 25.1604 83.6329 28.641 83.6329 32.1217C83.6329 32.7184 87.5428 32.1217 87.5428 31.1272C87.5428 28.3427 87.5428 25.5581 87.5428 22.8731C87.5428 22.0775 87.4425 21.2819 87.4425 20.4863C88.8461 19.8896 91.1519 20.4863 92.5555 20.5858C93.6583 20.6852 94.7611 20.3869 95.7637 20.2874C95.7637 22.5747 95.8639 24.862 95.9642 27.1493C95.9642 28.3427 96.4654 30.63 95.5631 31.6245C95.1621 32.1217 97.067 31.9228 97.1672 31.9228C97.9693 31.8233 98.9718 31.525 99.4731 30.9283C100.375 29.8344 99.9744 27.1493 99.8741 25.8565C99.7738 23.967 99.7738 22.0775 99.7738 20.188C100.877 19.9891 102.18 19.2929 101.979 18.3979ZM87.3423 18.2985C87.242 17.1051 87.1418 15.8123 87.0415 14.6189C86.841 12.3316 87.1418 9.04982 89.3474 7.65755C89.9489 7.25976 91.0517 7.35921 91.7535 7.25976C92.756 7.06087 93.7586 6.86197 94.5606 7.45866C95.7637 8.25424 95.4629 11.1382 95.4629 12.3316C95.4629 14.3206 95.6634 16.3095 95.7637 18.2985C95.1621 18.3979 94.6609 18.3979 94.0593 18.3979C91.7535 18.199 89.4476 17.8012 87.3423 18.2985Z" fill="black"/>
<path d="M24.2821 6.663C24.7834 6.56355 25.2846 6.4641 25.7859 6.16576C25.8862 6.06631 25.9864 5.96686 25.9864 5.96686C26.4877 5.66852 26.989 5.17128 26.6882 4.5746C26.1869 3.48067 26.2872 2.38675 26.2872 1.19337C26.2872 0.198895 25.2846 0 24.4826 0C23.7808 0.0994477 22.277 0.596686 22.277 1.49172C22.277 2.48619 22.1767 3.48067 22.3773 4.47515C22.3773 4.5746 22.277 4.67404 22.277 4.87294C22.1767 5.07183 22.277 5.27073 22.3773 5.46962V5.56907C22.3773 5.66852 22.3773 5.76797 22.3773 5.86742C22.4775 6.06631 22.5778 6.26521 22.7783 6.36465C23.3798 6.663 23.8811 6.663 24.2821 6.663Z" fill="black"/>
</svg>
