<svg width="100" height="76" viewBox="0 0 100 76" fill="none" xmlns="http://www.w3.org/2000/svg">
<path d="M96.3221 17.9114C96.3221 17.9114 95.4274 10.9843 92.5447 7.91662C88.9662 3.95829 84.8907 3.85931 83.1014 3.6614C69.8807 2.67181 50 2.67181 50 2.67181H49.9006C49.9006 2.67181 30.0199 2.67181 16.7992 3.6614C14.9105 3.85931 10.9344 3.95829 7.35586 7.91662C4.57256 10.9843 3.57853 17.9114 3.57853 17.9114C3.57853 17.9114 2.6839 26.026 2.6839 34.1406V41.7604C2.6839 49.8749 3.57853 57.9896 3.57853 57.9896C3.57853 57.9896 4.47316 64.9166 7.35586 67.9843C10.9344 71.9427 15.7057 71.8437 17.7932 72.2396C25.3479 73.0312 50 73.2291 50 73.2291C50 73.2291 69.8807 73.2291 83.1014 72.2396C84.9901 72.0416 88.9662 71.9427 92.5447 67.9843C95.328 64.9166 96.3221 57.9896 96.3221 57.9896C96.3221 57.9896 97.2167 49.8749 97.2167 41.7604V34.1406C97.2167 26.026 96.3221 17.9114 96.3221 17.9114Z" fill="#63D1BB"/>
<path d="M49.9006 76C48.9066 76 25.0497 75.7031 17.495 75.0104H17.3956H17.2962C16.998 74.9115 16.6004 74.9115 16.2028 74.8125C13.7177 74.5156 9.04572 73.9219 5.4672 69.8646C2.08747 66.3021 1.09344 59.1771 0.994036 58.3854C0.994036 58.0886 0 49.974 0 41.8594V34.2396C0 26.0261 0.894641 18.0104 0.894641 17.7135V17.6146C0.994045 16.8229 2.08748 9.79686 5.3678 6.1354C9.34394 1.78123 13.8171 1.28646 16.004 1.08855C16.2028 1.08855 16.4016 1.08854 16.501 0.989583H16.6004C29.8211 0 49.7018 0 49.9006 0H50C50.1988 0 70.0795 0 83.3002 0.989583H83.3996C83.5984 0.989583 83.6978 0.98959 83.8966 1.08855C86.0835 1.28646 90.5567 1.78123 94.5328 6.1354C97.9125 9.6979 98.9066 16.8229 99.006 17.6146C99.006 17.9114 100 26.0261 100 34.2396V41.8594C100 50.0729 99.1054 58.0886 99.006 58.3854V58.4844C98.9066 59.2761 97.8131 66.401 94.5328 69.9635C90.5567 74.3177 86.0835 74.8125 83.8966 75.0104C83.6978 75.0104 83.499 75.0104 83.3996 75.1094H83.3002C70.0795 76 50.0994 76 49.9006 76ZM18.1909 69.6667C25.6461 70.3594 49.2048 70.6563 50 70.6563C50.6958 70.6563 69.9801 70.6563 82.8032 69.6667C83.002 69.6667 83.2008 69.6667 83.3996 69.5677C85.1889 69.3698 87.9722 69.0729 90.5567 66.3021C92.3459 64.3229 93.4394 59.474 93.6382 57.7917C93.7376 57.2969 94.5328 49.4792 94.5328 41.8594V34.2396C94.5328 26.5208 93.6382 18.8021 93.5388 18.3073C93.2406 15.9323 92.1471 11.5781 90.4573 9.89583C87.8728 7.02604 85.0895 6.82811 83.3002 6.63019C83.1014 6.63019 82.9026 6.63022 82.7038 6.53126C69.6819 5.54167 50.0994 5.54167 49.9006 5.54167H49.8012C49.6024 5.54167 29.9205 5.54167 16.998 6.53126C16.7992 6.53126 16.6004 6.53123 16.4016 6.63019C14.6123 6.82811 11.829 7.125 9.24455 9.89583C7.45529 11.875 6.36184 16.724 6.16303 18.4063C6.06363 19 5.26839 26.7187 5.26839 34.3385V41.9583C5.26839 49.5781 6.16303 57.3958 6.16303 57.8906C6.46124 60.2656 7.55469 64.6198 9.24455 66.3021C11.5308 68.875 14.5129 69.2708 16.6998 69.5677C17.2962 69.4687 17.6939 69.5677 18.1909 69.6667Z" fill="white"/>
<path d="M38.0714 20.2864V55.6146L67.6937 38L38.0714 20.2864Z" fill="white"/>
</svg>
