<svg width="24" height="29" viewBox="0 0 24 29" fill="none" xmlns="http://www.w3.org/2000/svg">
<path d="M23.626 9.2C23.426 8.8 22.726 8.9 22.226 8.8H21.126C21.226 8.4 21.426 8.2 21.626 7.8C21.726 7.4 21.926 7.1 21.826 6.5C21.926 6.3 22.026 6.1 22.126 5.9C22.226 5.8 22.326 5.4 22.226 5.2C22.126 5 21.926 5 21.626 5C21.526 5 21.426 5.1 21.426 5.1C21.026 5.5 20.626 6.1 20.126 6.5H20.026C19.926 6.5 20.026 6.5 19.926 6.6C19.826 6.7 19.626 6.8 19.526 6.8C19.226 7 19.026 7.2 18.626 7.3C18.126 7.1 17.426 7 16.726 6.9C15.526 7 14.426 7.1 13.726 7.6C12.826 7.9 12.226 8.6 11.626 9.2C11.626 9.5 11.326 9.6 11.226 9.9C11.226 9.9 11.226 10 11.126 10C11.126 10.2 11.026 10.3 11.026 10.5C11.026 10.6 11.226 10.9 11.026 11C10.226 10.9 9.52601 10.4 8.92601 10C8.22601 9.6 7.42602 9.4 6.82602 8.9C6.12602 8.6 5.52601 8.1 5.02601 7.6C4.82601 7.3 4.52602 7.1 4.32602 6.7C3.92602 6.5 4.12602 5.8 3.62602 5.8C3.32602 5.8 3.32601 6 3.22601 6.2C3.12601 6.4 2.82602 6.4 2.82602 6.7C2.82602 6.7 2.82601 6.8 2.72601 6.8C2.52601 7.9 2.22601 8.8 2.22601 10.1C2.32601 10.5 2.52602 10.8 2.82602 11.1C2.42602 11.2 2.12601 11.3 1.92601 11.6C1.82601 12.7 2.32602 13.2 2.62602 13.9C2.72602 14.3 3.02601 14.6 3.22601 14.9C3.22601 15.1 3.42601 15.2 3.52601 15.3C3.52601 15.4 3.62602 15.4 3.62602 15.5C3.62602 15.6 3.92601 15.7 3.72601 15.7C3.32601 15.8 2.72601 15.8 2.42601 16.1C2.32601 16.4 2.32601 16.9 2.42601 17.2C2.42601 17.4 2.72601 17.5 2.72601 17.7C3.22601 18.1 3.82602 18.4 4.32602 18.8C4.92602 19 5.52601 19.1 6.22601 19.2C6.12601 19.5 5.92602 19.8 5.62602 19.9C4.82602 20.3 3.82601 20.4 2.92601 20.6C2.32601 20.6 1.92602 20.8 1.32602 20.8C1.02602 20.9 0.426014 20.9 0.226014 21C0.126014 21.1 0.126013 21.1 0.0260128 21.2C-0.0739872 21.6 0.126014 21.9 0.426014 22.1C0.426014 22.4 0.626016 22.4 0.826016 22.5C0.926016 22.7 1.12601 22.8 1.22601 22.9C1.72601 23.4 2.52602 23.7 3.12602 24C3.92602 24.2 4.72602 24.4 5.62602 24.5C6.52602 24.6 7.52601 24.6 8.42601 24.7H9.42601C9.92601 24.8 10.626 24.8 11.326 24.8C11.426 24.7 11.626 24.7 11.826 24.7C12.326 24.4 13.026 24.3 13.426 24C14.026 23.8 14.426 23.4 15.026 23.1C15.926 22.3 16.926 21.8 17.526 20.7C17.726 20.5 17.926 20.3 17.926 20C18.226 19.8 18.326 19.5 18.526 19.3C18.926 18.9 19.226 18.4 19.526 17.9C19.826 17.4 20.126 16.8 20.426 16.3C20.426 15.9 20.726 15.8 20.726 15.4C20.926 15.2 20.926 14.7 21.126 14.5C21.126 14.2 21.126 14.1 21.226 13.9C21.226 12.6 21.226 11.5 20.926 10.5C21.526 10.3 22.126 10.2 22.526 9.9C23.326 10.2 23.826 9.8 23.626 9.2ZM20.226 13.2C20.026 14.1 19.626 14.6 19.226 15.2C19.326 15.6 19.126 15.7 19.126 16.1C18.926 16.4 18.826 16.8 18.726 17.1C18.526 17.4 18.426 17.7 18.226 18C17.826 18.5 17.426 19.1 17.026 19.6C16.626 20.2 16.126 20.6 15.726 21.1C15.326 21.6 14.826 22 14.326 22.4C13.826 22.6 13.426 22.8 13.026 23.1C12.826 23.2 12.526 23.3 12.326 23.4C12.126 23.5 11.826 23.5 11.626 23.7C10.526 23.8 9.32601 23.9 8.02601 23.8C7.02601 23.7 5.92601 23.6 5.02601 23.4C4.12601 23.2 3.52601 22.7 2.72601 22.4C2.92601 22.2 3.32601 22.2 3.72601 22.2C3.72601 22 4.12602 22.2 4.12602 22.1C4.42602 22.2 4.42602 22 4.62602 22C5.22602 21.8 5.82602 21.7 6.32602 21.4C6.62602 21.3 6.72601 21 7.02601 20.8C7.02601 20.6 7.12601 20.5 7.22601 20.4C7.22601 20.1 7.42602 20 7.32602 19.6C7.42602 19.4 7.62602 19.3 7.62602 18.9C7.52602 18.8 7.52602 18.6 7.32602 18.5C7.32602 18.3 6.92601 18.4 6.92601 18.3C6.62601 18.3 6.52602 18.3 6.32602 18.2C6.12602 18.2 5.82602 18.3 5.82602 18.1C5.02602 18.1 4.52601 17.7 3.92601 17.4C4.32601 17.1 4.92601 17 5.22601 16.7C5.72601 16.6 6.32602 16.6 6.32602 16C6.32602 15.3 5.52601 15.3 5.02601 15.2C4.22601 14.5 3.82601 13.5 3.22601 12.7C3.42601 12.5 3.82601 12.5 3.92601 12.3C4.42601 12.4 4.42602 12 4.62602 11.8C4.62602 11.3 4.32601 11.2 4.02601 11C3.72601 10.8 3.52602 10.5 3.32602 10.3C3.32602 9.5 3.32601 8.6 3.42601 7.9C3.52601 7.9 3.52601 7.9 3.52601 8C3.72601 8.4 4.12602 8.8 4.32602 9.2C4.82602 9.6 5.22601 10.1 5.92601 10.3C6.42601 10.7 7.02601 10.9 7.52601 11.3C8.12601 11.6 8.72601 11.9 9.22601 12.2C9.92601 12.4 10.326 12.9 11.226 12.8C11.426 12.7 11.626 12.6 11.826 12.5C12.126 12 11.726 11.4 11.926 10.9C12.226 10.2 12.726 9.9 13.226 9.4C13.526 9.2 13.826 9.1 14.026 8.9C14.326 8.8 14.726 8.7 15.026 8.5C15.426 8.5 15.726 8.4 16.026 8.4H17.326C17.526 8.5 17.826 8.5 18.026 8.5C18.226 8.6 18.426 8.8 18.726 8.9C19.526 9.6 20.026 10.6 20.126 11.9C20.126 12.2 20.226 12.6 20.226 13.2ZM20.526 7.6C20.426 7.9 20.326 8.3 19.926 8.4C19.926 8.3 19.826 8.3 19.826 8.2C19.826 8 20.026 8 20.126 7.9C20.226 7.8 20.326 7.6 20.526 7.6C20.626 7.6 20.526 7.5 20.526 7.6ZM15.026 10.6C15.226 10.7 15.326 10.9 15.526 11C15.626 11.2 15.826 11.3 16.126 11.4C16.126 11.2 16.426 11.4 16.526 11.2C16.726 11.2 16.726 11 16.826 10.9C16.826 10.4 16.726 9.9 16.426 9.6C15.726 9.1 14.726 9.6 15.026 10.6Z" fill="black"/>
</svg>
